<mxfile host="Electron" modified="2023-07-25T16:51:58.012Z" agent="Mozilla/5.0 (Windows NT 10.0; Win64; x64) AppleWebKit/537.36 (KHTML, like Gecko) draw.io/21.6.1 Chrome/112.0.5615.204 Electron/24.6.1 Safari/537.36" etag="p4NgZjt9i-dMMrM-qPP9" version="21.6.1" type="device">
  <diagram id="prtHgNgQTEPvFCAcTncT" name="Page-1">
    <mxGraphModel dx="1247" dy="728" grid="1" gridSize="10" guides="1" tooltips="1" connect="1" arrows="1" fold="1" page="1" pageScale="1" pageWidth="827" pageHeight="1169" math="0" shadow="0">
      <root>
        <mxCell id="0" />
        <mxCell id="1" parent="0" />
        <mxCell id="dNxyNK7c78bLwvsdeMH5-19" value="Experiment" style="swimlane;html=1;childLayout=stackLayout;resizeParent=1;resizeParentMax=0;horizontal=0;startSize=20;horizontalStack=0;" parent="1" vertex="1">
          <mxGeometry x="120" y="120" width="1420" height="480" as="geometry" />
        </mxCell>
        <mxCell id="dNxyNK7c78bLwvsdeMH5-20" value="User" style="swimlane;html=1;startSize=20;horizontal=0;" parent="dNxyNK7c78bLwvsdeMH5-19" vertex="1">
          <mxGeometry x="20" width="1400" height="120" as="geometry" />
        </mxCell>
        <mxCell id="WSmSX_3TVf46EgoOAQ_6-4" value="Choose &quot;Participants File&quot;&amp;nbsp;" style="rounded=0;whiteSpace=wrap;html=1;fontFamily=Helvetica;fontSize=12;fontColor=#000000;align=center;" parent="dNxyNK7c78bLwvsdeMH5-20" vertex="1">
          <mxGeometry x="130" y="30" width="80" height="60" as="geometry" />
        </mxCell>
        <mxCell id="dNxyNK7c78bLwvsdeMH5-36" value="" style="rhombus;whiteSpace=wrap;html=1;fontFamily=Helvetica;fontSize=12;fontColor=#000000;align=center;" parent="dNxyNK7c78bLwvsdeMH5-20" vertex="1">
          <mxGeometry x="470" y="40" width="40" height="40" as="geometry" />
        </mxCell>
        <mxCell id="WSmSX_3TVf46EgoOAQ_6-16" style="edgeStyle=orthogonalEdgeStyle;rounded=0;orthogonalLoop=1;jettySize=auto;html=1;entryX=0;entryY=0.5;entryDx=0;entryDy=0;" parent="dNxyNK7c78bLwvsdeMH5-20" source="WSmSX_3TVf46EgoOAQ_6-14" target="dNxyNK7c78bLwvsdeMH5-36" edge="1">
          <mxGeometry relative="1" as="geometry" />
        </mxCell>
        <mxCell id="WSmSX_3TVf46EgoOAQ_6-14" value="Select&lt;br&gt;Participant" style="rounded=0;whiteSpace=wrap;html=1;fontFamily=Helvetica;fontSize=12;fontColor=#000000;align=center;" parent="dNxyNK7c78bLwvsdeMH5-20" vertex="1">
          <mxGeometry x="370" y="30" width="80" height="60" as="geometry" />
        </mxCell>
        <mxCell id="WSmSX_3TVf46EgoOAQ_6-24" value="Enters missing data" style="rounded=0;whiteSpace=wrap;html=1;fontFamily=Helvetica;fontSize=12;fontColor=#000000;align=center;" parent="dNxyNK7c78bLwvsdeMH5-20" vertex="1">
          <mxGeometry x="740" y="30" width="80" height="60" as="geometry" />
        </mxCell>
        <mxCell id="dNxyNK7c78bLwvsdeMH5-21" value="Participant File" style="swimlane;html=1;startSize=20;horizontal=0;" parent="dNxyNK7c78bLwvsdeMH5-19" vertex="1">
          <mxGeometry x="20" y="120" width="1400" height="120" as="geometry" />
        </mxCell>
        <mxCell id="dNxyNK7c78bLwvsdeMH5-34" value="Load Participant Data" style="rounded=0;whiteSpace=wrap;html=1;fontFamily=Helvetica;fontSize=12;fontColor=#000000;align=center;" parent="dNxyNK7c78bLwvsdeMH5-21" vertex="1">
          <mxGeometry x="250" y="30" width="80" height="60" as="geometry" />
        </mxCell>
        <mxCell id="WSmSX_3TVf46EgoOAQ_6-21" style="edgeStyle=orthogonalEdgeStyle;rounded=0;orthogonalLoop=1;jettySize=auto;html=1;entryX=0;entryY=0.5;entryDx=0;entryDy=0;" parent="dNxyNK7c78bLwvsdeMH5-21" source="WSmSX_3TVf46EgoOAQ_6-11" target="WSmSX_3TVf46EgoOAQ_6-20" edge="1">
          <mxGeometry relative="1" as="geometry" />
        </mxCell>
        <mxCell id="WSmSX_3TVf46EgoOAQ_6-11" value="Create new Partici" style="rounded=0;whiteSpace=wrap;html=1;fontFamily=Helvetica;fontSize=12;fontColor=#000000;align=center;" parent="dNxyNK7c78bLwvsdeMH5-21" vertex="1">
          <mxGeometry x="450" y="30" width="80" height="60" as="geometry" />
        </mxCell>
        <mxCell id="WSmSX_3TVf46EgoOAQ_6-18" value="Load Missing Data" style="rounded=0;whiteSpace=wrap;html=1;fontFamily=Helvetica;fontSize=12;fontColor=#000000;align=center;" parent="dNxyNK7c78bLwvsdeMH5-21" vertex="1">
          <mxGeometry x="620" y="30" width="80" height="60" as="geometry" />
        </mxCell>
        <mxCell id="WSmSX_3TVf46EgoOAQ_6-23" style="edgeStyle=orthogonalEdgeStyle;rounded=0;orthogonalLoop=1;jettySize=auto;html=1;entryX=0;entryY=0.5;entryDx=0;entryDy=0;" parent="dNxyNK7c78bLwvsdeMH5-21" source="WSmSX_3TVf46EgoOAQ_6-20" target="WSmSX_3TVf46EgoOAQ_6-18" edge="1">
          <mxGeometry relative="1" as="geometry" />
        </mxCell>
        <mxCell id="WSmSX_3TVf46EgoOAQ_6-20" value="" style="rhombus;whiteSpace=wrap;html=1;fontFamily=Helvetica;fontSize=12;fontColor=#000000;align=center;" parent="dNxyNK7c78bLwvsdeMH5-21" vertex="1">
          <mxGeometry x="550" y="40" width="40" height="40" as="geometry" />
        </mxCell>
        <mxCell id="7uPW_eYRZqSrtQjB_KPH-9" style="edgeStyle=orthogonalEdgeStyle;rounded=0;orthogonalLoop=1;jettySize=auto;html=1;entryX=0;entryY=0.5;entryDx=0;entryDy=0;" edge="1" parent="dNxyNK7c78bLwvsdeMH5-21" source="WSmSX_3TVf46EgoOAQ_6-26" target="WSmSX_3TVf46EgoOAQ_6-18">
          <mxGeometry relative="1" as="geometry">
            <mxPoint x="590" y="60" as="targetPoint" />
            <Array as="points">
              <mxPoint x="860" y="100" />
              <mxPoint x="600" y="100" />
              <mxPoint x="600" y="60" />
            </Array>
          </mxGeometry>
        </mxCell>
        <mxCell id="7uPW_eYRZqSrtQjB_KPH-10" value="More Data &lt;br&gt;is missing" style="edgeLabel;html=1;align=center;verticalAlign=middle;resizable=0;points=[];" vertex="1" connectable="0" parent="7uPW_eYRZqSrtQjB_KPH-9">
          <mxGeometry x="-0.3588" y="4" relative="1" as="geometry">
            <mxPoint x="9" y="-4" as="offset" />
          </mxGeometry>
        </mxCell>
        <mxCell id="WSmSX_3TVf46EgoOAQ_6-26" value="" style="rhombus;whiteSpace=wrap;html=1;fontFamily=Helvetica;fontSize=12;fontColor=#000000;align=center;" parent="dNxyNK7c78bLwvsdeMH5-21" vertex="1">
          <mxGeometry x="840" y="40" width="40" height="40" as="geometry" />
        </mxCell>
        <mxCell id="dNxyNK7c78bLwvsdeMH5-22" value="Exerpiment File" style="swimlane;html=1;startSize=20;horizontal=0;" parent="dNxyNK7c78bLwvsdeMH5-19" vertex="1">
          <mxGeometry x="20" y="240" width="1400" height="120" as="geometry" />
        </mxCell>
        <mxCell id="dNxyNK7c78bLwvsdeMH5-23" value="" style="ellipse;whiteSpace=wrap;html=1;labelBorderColor=default;labelBackgroundColor=default;" parent="dNxyNK7c78bLwvsdeMH5-22" vertex="1">
          <mxGeometry x="50" y="40" width="40" height="40" as="geometry" />
        </mxCell>
        <mxCell id="dNxyNK7c78bLwvsdeMH5-32" value="" style="ellipse;whiteSpace=wrap;html=1;" parent="dNxyNK7c78bLwvsdeMH5-22" vertex="1">
          <mxGeometry x="920" y="40" width="40" height="40" as="geometry" />
        </mxCell>
        <mxCell id="7uPW_eYRZqSrtQjB_KPH-13" value="Meta Data File" style="swimlane;html=1;startSize=20;horizontal=0;" vertex="1" parent="dNxyNK7c78bLwvsdeMH5-19">
          <mxGeometry x="20" y="360" width="1400" height="120" as="geometry" />
        </mxCell>
        <mxCell id="WSmSX_3TVf46EgoOAQ_6-7" style="edgeStyle=orthogonalEdgeStyle;rounded=0;orthogonalLoop=1;jettySize=auto;html=1;entryX=0;entryY=0.5;entryDx=0;entryDy=0;" parent="dNxyNK7c78bLwvsdeMH5-19" source="WSmSX_3TVf46EgoOAQ_6-4" target="dNxyNK7c78bLwvsdeMH5-34" edge="1">
          <mxGeometry relative="1" as="geometry" />
        </mxCell>
        <mxCell id="WSmSX_3TVf46EgoOAQ_6-12" style="edgeStyle=orthogonalEdgeStyle;rounded=0;orthogonalLoop=1;jettySize=auto;html=1;entryX=0.5;entryY=0;entryDx=0;entryDy=0;" parent="dNxyNK7c78bLwvsdeMH5-19" source="dNxyNK7c78bLwvsdeMH5-36" target="WSmSX_3TVf46EgoOAQ_6-11" edge="1">
          <mxGeometry relative="1" as="geometry" />
        </mxCell>
        <mxCell id="WSmSX_3TVf46EgoOAQ_6-13" value="No participant &lt;br&gt;chosen" style="edgeLabel;html=1;align=center;verticalAlign=middle;resizable=0;points=[];" parent="WSmSX_3TVf46EgoOAQ_6-12" vertex="1" connectable="0">
          <mxGeometry x="747" y="2" relative="1" as="geometry">
            <mxPoint x="38" y="-25" as="offset" />
          </mxGeometry>
        </mxCell>
        <mxCell id="7uPW_eYRZqSrtQjB_KPH-4" value="No Participant &lt;br&gt;Chosen" style="edgeLabel;html=1;align=center;verticalAlign=middle;resizable=0;points=[];" vertex="1" connectable="0" parent="WSmSX_3TVf46EgoOAQ_6-12">
          <mxGeometry x="-0.3846" y="-2" relative="1" as="geometry">
            <mxPoint as="offset" />
          </mxGeometry>
        </mxCell>
        <mxCell id="WSmSX_3TVf46EgoOAQ_6-15" style="edgeStyle=orthogonalEdgeStyle;rounded=0;orthogonalLoop=1;jettySize=auto;html=1;entryX=0;entryY=0.5;entryDx=0;entryDy=0;" parent="dNxyNK7c78bLwvsdeMH5-19" source="dNxyNK7c78bLwvsdeMH5-34" target="WSmSX_3TVf46EgoOAQ_6-14" edge="1">
          <mxGeometry relative="1" as="geometry" />
        </mxCell>
        <mxCell id="WSmSX_3TVf46EgoOAQ_6-22" style="edgeStyle=orthogonalEdgeStyle;rounded=0;orthogonalLoop=1;jettySize=auto;html=1;entryX=0.5;entryY=0;entryDx=0;entryDy=0;" parent="dNxyNK7c78bLwvsdeMH5-19" source="dNxyNK7c78bLwvsdeMH5-36" target="WSmSX_3TVf46EgoOAQ_6-20" edge="1">
          <mxGeometry relative="1" as="geometry" />
        </mxCell>
        <mxCell id="7uPW_eYRZqSrtQjB_KPH-5" value="Participant &lt;br&gt;Chosen" style="edgeLabel;html=1;align=center;verticalAlign=middle;resizable=0;points=[];" vertex="1" connectable="0" parent="WSmSX_3TVf46EgoOAQ_6-22">
          <mxGeometry x="-0.7132" y="3" relative="1" as="geometry">
            <mxPoint x="38" y="23" as="offset" />
          </mxGeometry>
        </mxCell>
        <mxCell id="7uPW_eYRZqSrtQjB_KPH-7" style="edgeStyle=orthogonalEdgeStyle;rounded=0;orthogonalLoop=1;jettySize=auto;html=1;entryX=0;entryY=0.5;entryDx=0;entryDy=0;" edge="1" parent="dNxyNK7c78bLwvsdeMH5-19" source="WSmSX_3TVf46EgoOAQ_6-18" target="WSmSX_3TVf46EgoOAQ_6-24">
          <mxGeometry relative="1" as="geometry" />
        </mxCell>
        <mxCell id="7uPW_eYRZqSrtQjB_KPH-8" style="edgeStyle=orthogonalEdgeStyle;rounded=0;orthogonalLoop=1;jettySize=auto;html=1;entryX=0.5;entryY=0;entryDx=0;entryDy=0;" edge="1" parent="dNxyNK7c78bLwvsdeMH5-19" source="WSmSX_3TVf46EgoOAQ_6-24" target="WSmSX_3TVf46EgoOAQ_6-26">
          <mxGeometry relative="1" as="geometry" />
        </mxCell>
        <mxCell id="WSmSX_3TVf46EgoOAQ_6-8" style="edgeStyle=orthogonalEdgeStyle;rounded=0;orthogonalLoop=1;jettySize=auto;html=1;entryX=0;entryY=0.5;entryDx=0;entryDy=0;" parent="dNxyNK7c78bLwvsdeMH5-19" source="dNxyNK7c78bLwvsdeMH5-23" target="WSmSX_3TVf46EgoOAQ_6-4" edge="1">
          <mxGeometry relative="1" as="geometry" />
        </mxCell>
        <mxCell id="7uPW_eYRZqSrtQjB_KPH-77" style="edgeStyle=orthogonalEdgeStyle;rounded=0;orthogonalLoop=1;jettySize=auto;html=1;entryX=0;entryY=0.5;entryDx=0;entryDy=0;" edge="1" parent="dNxyNK7c78bLwvsdeMH5-19" source="WSmSX_3TVf46EgoOAQ_6-26" target="dNxyNK7c78bLwvsdeMH5-32">
          <mxGeometry relative="1" as="geometry" />
        </mxCell>
      </root>
    </mxGraphModel>
  </diagram>
</mxfile>
